<svg xmlns="http://www.w3.org/2000/svg" width="2400" height="960" viewBox="0 0 2400 960" version="1.1">
	<path d="M 2198 254.957 C 2197.175 255.419, 2194.475 256.624, 2192 257.635 C 2185.662 260.225, 2178.814 266.923, 2176.076 273.209 C 2174.809 276.119, 2173.373 279.281, 2172.886 280.236 C 2171.628 282.702, 2171.787 294.377, 2173.125 297.703 C 2175.959 304.753, 2177.777 307.943, 2182 313.276 C 2182.825 314.318, 2186.526 316.707, 2190.225 318.585 C 2196.396 321.719, 2197.690 322, 2205.928 322 C 2210.866 322, 2216.165 321.487, 2217.703 320.859 C 2225.256 317.780, 2226.826 316.774, 2231.053 312.309 C 2235.357 307.764, 2236.145 306.494, 2238.875 299.703 C 2239.494 298.165, 2240 292.709, 2240 287.579 C 2240 279.210, 2239.718 277.769, 2237.250 273.553 C 2235.738 270.968, 2234.032 268.034, 2233.461 267.033 C 2231.690 263.932, 2229.668 261.830, 2227.541 260.881 C 2226.418 260.380, 2224.150 259.110, 2222.500 258.058 C 2220.850 257.007, 2218.289 256.113, 2216.809 256.073 C 2215.329 256.033, 2213.840 255.550, 2213.500 255 C 2212.758 253.800, 2200.130 253.765, 2198 254.957 M 2201 262.205 C 2188.547 267.531, 2186.784 268.917, 2183.376 276.053 C 2178.916 285.394, 2177.698 291.077, 2179.869 292.419 C 2180.346 292.714, 2181.015 294.689, 2181.353 296.808 C 2182.147 301.769, 2188.775 309.174, 2195.419 312.521 C 2200.527 315.095, 2210.103 315.944, 2213.764 314.148 C 2214.719 313.680, 2217.691 312.217, 2220.369 310.898 C 2231.388 305.471, 2236.409 289.073, 2230.579 277.556 C 2227.277 271.034, 2223.865 267.715, 2217.708 265.037 C 2214.843 263.791, 2211.719 262.373, 2210.764 261.886 C 2208.488 260.725, 2204.126 260.867, 2201 262.205 M 2191.667 270.667 C 2190.833 271.500, 2190.779 304.260, 2191.607 306.418 C 2191.964 307.349, 2193.388 308, 2195.065 308 L 2197.916 308 2198.208 300.261 C 2198.444 294.004, 2198.817 292.461, 2200.153 292.206 C 2202.582 291.743, 2208.782 297.632, 2211.008 302.518 C 2213.066 307.035, 2214.472 308, 2218.998 308 C 2224.316 308, 2223.332 304.789, 2214.941 294.761 L 2211.812 291.022 2214.365 290.051 C 2216.896 289.089, 2221 282.566, 2221 279.505 C 2221 277.848, 2218.204 272.964, 2216.614 271.843 C 2216.101 271.481, 2215.124 271.399, 2214.442 271.661 C 2213.760 271.922, 2212.905 271.656, 2212.542 271.068 C 2211.822 269.903, 2192.796 269.537, 2191.667 270.667 M 2198.390 278.427 C 2198.088 279.212, 2197.990 280.900, 2198.171 282.177 C 2198.450 284.149, 2199.169 284.548, 2202.920 284.816 C 2209.265 285.269, 2212 284.373, 2212 281.841 C 2212 280.675, 2211.213 279.123, 2210.250 278.392 C 2207.824 276.551, 2199.100 276.577, 2198.390 278.427 M 201 483.012 L 201 641.024 238.750 640.762 L 276.500 640.500 276.754 512.250 L 277.008 384 337.377 384 C 394.924 384, 397.951 384.091, 402.126 385.938 C 407.576 388.348, 411.947 392.820, 413.659 397.737 C 414.536 400.254, 414.975 407.065, 414.985 418.312 C 415.006 441.876, 413.539 445.699, 402.300 451.382 C 399.494 452.801, 393.608 453, 354.535 453 L 309.970 453 310.235 482.250 L 310.500 511.500 327.136 511.774 L 343.771 512.047 374.566 573.774 C 391.503 607.723, 406.210 636.737, 407.249 638.250 L 409.136 641 448.068 641 C 480.233 641, 487 640.764, 487 639.640 C 487 638.891, 485.801 636.529, 484.336 634.390 C 482.871 632.250, 469.573 606.425, 454.785 577 C 439.997 547.575, 426.587 521.117, 424.985 518.205 C 421.651 512.145, 421.517 512.280, 431.500 511.637 C 440.540 511.054, 444.686 510.142, 448.797 507.833 C 450.630 506.804, 452.444 506.156, 452.828 506.394 C 453.212 506.631, 455.449 505.515, 457.799 503.913 C 460.148 502.311, 462.457 501, 462.928 501 C 463.400 501, 464.045 500.325, 464.362 499.500 C 464.678 498.675, 465.525 498, 466.244 498 C 467.909 498, 480.790 484.771, 484.257 479.500 C 485.704 477.300, 487.356 474.253, 487.927 472.729 C 488.595 470.950, 488.985 451.531, 489.018 418.507 C 489.075 361.266, 489.577 365.966, 482.185 354.500 C 479.539 350.396, 469.231 340.880, 463 336.789 C 455.911 332.136, 443.602 327, 439.539 327 C 438.207 327, 436.840 326.550, 436.500 326 C 436.094 325.343, 395.656 325, 318.441 325 L 201 325 201 483.012 M 586.500 326 C 586.160 326.550, 584.409 327, 582.608 327 C 580.807 327, 579.002 327.332, 578.596 327.737 C 578.191 328.143, 577.328 328.496, 576.679 328.523 C 575.486 328.572, 568.758 331.485, 566 333.146 C 565.175 333.643, 562.645 334.934, 560.378 336.015 C 553.580 339.256, 540.988 352.588, 536.683 361.104 L 532.944 368.500 533.222 484.500 C 533.483 593.343, 533.609 600.694, 535.271 603.645 C 536.245 605.374, 537.707 607.342, 538.521 608.017 C 539.334 608.692, 540 609.677, 540 610.204 C 540 611.339, 547.084 620.324, 548.427 620.892 C 548.936 621.108, 551.186 622.939, 553.427 624.961 C 555.667 626.983, 559.075 629.407, 561 630.347 C 562.925 631.286, 565.175 632.437, 566 632.903 C 571.432 635.974, 576.775 638.088, 580.353 638.582 C 582.634 638.898, 585.400 639.579, 586.500 640.096 C 587.720 640.669, 628.675 640.932, 691.500 640.768 L 794.500 640.500 794.500 611.500 L 794.500 582.500 708.500 582 L 622.500 581.500 618.345 579.278 C 613.509 576.692, 610.094 572.718, 609.301 568.756 C 608.993 567.217, 608.350 565.716, 607.871 565.420 C 607.392 565.124, 607 552.986, 607 538.446 L 607 512.010 700.750 511.755 L 794.500 511.500 794.765 482.255 L 795.030 453.010 701.265 452.755 L 607.500 452.500 607.233 427.123 C 607.085 413.084, 607.368 401.245, 607.867 400.623 C 608.363 400.006, 609.068 398.101, 609.433 396.391 C 610.386 391.930, 615.867 387.165, 622.315 385.191 C 623.517 384.824, 662.862 384.400, 709.750 384.250 L 795 383.978 795 354.489 L 795 325 691.059 325 C 622.844 325, 586.906 325.344, 586.500 326 M 892.681 325.652 C 892.110 326.224, 885.159 327.760, 881.195 328.191 C 877.249 328.621, 862.872 337.570, 855.011 344.490 C 847.793 350.845, 845.428 353.670, 842.520 359.414 L 838.933 366.500 838.940 402.100 C 838.944 421.679, 839.253 438.554, 839.626 439.600 C 839.999 440.645, 840.983 442.291, 841.813 443.257 C 842.643 444.223, 843.821 446.014, 844.431 447.237 C 845.041 448.460, 846.586 449.982, 847.864 450.620 C 849.143 451.257, 851.904 453.453, 854 455.500 C 857.519 458.936, 860.167 460.823, 864 462.628 C 864.825 463.016, 867.189 464.833, 869.253 466.667 C 871.317 468.500, 873.610 470, 874.348 470 C 875.086 470, 876.505 470.900, 877.500 472 C 878.495 473.100, 879.708 474, 880.195 474 C 881.063 474, 887.013 477.900, 888 479.116 C 888.275 479.454, 890.476 480.804, 892.891 482.116 C 904.563 488.453, 907.980 490.378, 914 494.007 C 917.575 496.162, 923.222 499.268, 926.549 500.910 C 929.875 502.552, 933.700 504.733, 935.049 505.758 C 936.397 506.782, 940.546 509.112, 944.268 510.935 C 947.991 512.759, 951.259 514.611, 951.531 515.051 C 951.803 515.491, 956.858 518.189, 962.763 521.047 C 968.668 523.905, 974.175 526.821, 975 527.527 C 975.825 528.232, 982.350 531.817, 989.500 535.492 C 1005.640 543.789, 1015.246 549.089, 1017.347 550.855 C 1022.007 554.773, 1023.666 567.686, 1020.396 574.577 C 1018.649 578.259, 1013.674 581.349, 1010.908 580.471 C 1009.951 580.167, 1008.879 580.387, 1008.525 580.959 C 1008.088 581.667, 980.857 582, 923.441 582 C 867.825 582, 838.994 582.341, 838.983 583 C 838.974 583.550, 838.967 596.375, 838.967 611.500 C 838.967 626.625, 838.974 639.450, 838.983 640 C 839.004 641.253, 1041.638 641.395, 1042.412 640.143 C 1042.703 639.672, 1045.461 639.026, 1048.541 638.708 C 1055.220 638.019, 1070.604 630.561, 1076.042 625.377 C 1077.990 623.520, 1080.049 622, 1080.618 622 C 1081.738 622, 1086 617.799, 1086 616.694 C 1086 616.322, 1087.643 613.876, 1089.651 611.259 C 1091.660 608.641, 1094.360 604.125, 1095.651 601.221 C 1097.960 596.033, 1098 595.387, 1098 563.432 C 1098 532.394, 1097.905 530.729, 1095.898 526.710 C 1093.667 522.243, 1084.318 512, 1082.471 512 C 1081.868 512, 1080.081 510.650, 1078.500 509 C 1076.919 507.350, 1075.051 506, 1074.348 506 C 1073.645 506, 1072.577 505.078, 1071.974 503.952 C 1071.372 502.826, 1069.893 501.477, 1068.689 500.955 C 1066.005 499.790, 1064.271 498.685, 1056.550 493.214 C 1053.222 490.857, 1048.647 488.049, 1046.382 486.976 C 1044.117 485.902, 1041.700 484.343, 1041.010 483.512 C 1040.320 482.680, 1039.290 482, 1038.722 482 C 1038.154 482, 1036.296 480.962, 1034.594 479.694 C 1032.892 478.425, 1029.025 476.154, 1026 474.647 C 1022.975 473.139, 1017.575 470.137, 1014 467.975 C 1010.425 465.814, 1004.575 462.638, 1001 460.920 C 997.425 459.201, 993.766 457.145, 992.870 456.351 C 991.290 454.952, 981.790 449.887, 960 438.829 C 954.225 435.899, 949.347 433.153, 949.159 432.729 C 948.972 432.304, 942.781 429.005, 935.401 425.397 C 928.022 421.790, 921.522 417.975, 920.957 416.919 C 920.392 415.864, 919.273 415, 918.470 415 C 917.667 415, 916.062 412.983, 914.903 410.517 C 912.821 406.088, 912.804 405.681, 914.243 394.500 C 914.384 393.400, 915.175 391.555, 916 390.399 C 917.704 388.011, 923.439 384.772, 924.349 385.682 C 924.680 386.014, 925.568 385.773, 926.321 385.148 C 927.315 384.323, 950.987 383.941, 1012.596 383.756 L 1097.500 383.500 1097.500 354.500 L 1097.500 325.500 995.421 325.245 C 939.278 325.105, 893.045 325.288, 892.681 325.652 M 1141 354.496 L 1141 384 1187.496 384 L 1233.992 384 1234.246 512.250 L 1234.500 640.500 1271.258 640.500 L 1308.017 640.500 1308.258 512.500 L 1308.500 384.500 1355 384 L 1401.500 383.500 1401.500 354.500 L 1401.500 325.500 1271.250 325.246 L 1141 324.993 1141 354.496 M 1443.462 326.250 C 1443.200 326.938, 1443.102 397.925, 1443.243 484 L 1443.500 640.500 1481 640.500 L 1518.500 640.500 1518.755 543.668 C 1518.946 471.231, 1519.300 446.933, 1520.160 447.220 C 1520.793 447.431, 1522.928 450.556, 1524.905 454.166 C 1526.882 457.775, 1528.969 461.352, 1529.541 462.114 C 1530.114 462.876, 1531.216 464.850, 1531.991 466.500 C 1532.765 468.150, 1534.334 470.850, 1535.478 472.500 C 1536.622 474.150, 1538.657 477.750, 1540 480.500 C 1541.343 483.250, 1543.378 486.850, 1544.522 488.500 C 1545.666 490.150, 1547.244 492.850, 1548.030 494.500 C 1548.816 496.150, 1550.414 498.850, 1551.582 500.500 C 1552.749 502.150, 1554.015 504.175, 1554.395 505 C 1554.775 505.825, 1556.845 509.425, 1558.994 513 C 1561.143 516.575, 1564.215 521.975, 1565.819 525 C 1567.423 528.025, 1570.585 533.650, 1572.846 537.500 C 1575.107 541.350, 1578.120 546.854, 1579.543 549.731 C 1580.965 552.608, 1582.549 555.221, 1583.063 555.539 C 1583.576 555.856, 1585.150 558.556, 1586.561 561.538 C 1587.972 564.520, 1589.546 567.220, 1590.060 567.537 C 1590.573 567.854, 1592.070 570.466, 1593.385 573.342 C 1594.700 576.217, 1596.501 579.171, 1597.388 579.907 C 1598.275 580.643, 1599 581.788, 1599 582.451 C 1599 583.114, 1600.410 585.786, 1602.134 588.389 C 1603.858 590.991, 1606.220 594.864, 1607.384 596.996 C 1610.007 601.799, 1614.945 610.597, 1619.454 618.500 C 1621.338 621.800, 1623.676 626.075, 1624.652 628 C 1625.628 629.925, 1627.943 633.638, 1629.798 636.250 L 1633.170 641 1640.335 640.985 C 1644.276 640.976, 1648.045 640.623, 1648.711 640.200 C 1649.377 639.776, 1650.608 637.789, 1651.446 635.783 C 1652.284 633.778, 1653.426 631.855, 1653.983 631.511 C 1654.540 631.166, 1656.150 628.444, 1657.561 625.462 C 1658.972 622.480, 1660.519 619.797, 1661 619.500 C 1661.481 619.203, 1663.028 616.520, 1664.439 613.538 C 1665.850 610.556, 1667.440 607.846, 1667.973 607.516 C 1668.507 607.187, 1669.868 605.023, 1670.998 602.709 C 1672.128 600.394, 1674.829 595.575, 1676.999 592 C 1679.170 588.425, 1682.101 583.250, 1683.512 580.500 C 1686.717 574.256, 1690.492 567.901, 1691.995 566.217 C 1692.626 565.511, 1694.263 562.482, 1695.635 559.486 C 1697.007 556.490, 1698.575 553.762, 1699.121 553.425 C 1699.667 553.088, 1701.214 550.405, 1702.560 547.463 C 1703.905 544.521, 1705.427 541.854, 1705.940 541.537 C 1706.454 541.220, 1708.006 538.567, 1709.390 535.642 C 1710.774 532.716, 1712.602 529.745, 1713.453 529.039 C 1714.304 528.333, 1715 527.196, 1715 526.512 C 1715 525.829, 1715.938 524.077, 1717.084 522.620 C 1718.230 521.163, 1720.593 517.273, 1722.334 513.976 C 1730.046 499.373, 1739.325 483.155, 1742.705 478.372 C 1743.921 476.652, 1746.061 472.740, 1747.461 469.679 C 1748.861 466.618, 1750.480 463.821, 1751.060 463.463 C 1751.639 463.105, 1753.214 460.405, 1754.560 457.463 C 1755.905 454.521, 1757.483 451.820, 1758.065 451.460 C 1758.647 451.100, 1759.545 449.697, 1760.060 448.343 C 1760.575 446.988, 1761.447 446.158, 1761.998 446.499 C 1762.656 446.906, 1763 480.394, 1763 544.071 L 1763 641.025 1799.750 640.762 L 1836.500 640.500 1836.753 482.750 L 1837.006 325 1791.503 325 C 1753.520 325, 1746 325.228, 1746 326.378 C 1746 327.135, 1745.304 328.333, 1744.453 329.039 C 1743.602 329.745, 1741.774 332.716, 1740.390 335.642 C 1739.006 338.567, 1737.481 341.203, 1737 341.500 C 1736.519 341.797, 1734.972 344.480, 1733.561 347.462 C 1732.150 350.444, 1730.560 353.154, 1730.027 353.484 C 1729.493 353.813, 1728.127 356.185, 1726.990 358.755 C 1725.854 361.325, 1724.274 364.145, 1723.479 365.023 C 1722.685 365.900, 1720.565 369.409, 1718.768 372.819 C 1715.796 378.457, 1707.955 392.554, 1699.689 407.120 C 1697.935 410.210, 1696.031 413.360, 1695.459 414.120 C 1694.886 414.879, 1693.770 416.850, 1692.979 418.500 C 1692.188 420.150, 1690.609 422.850, 1689.470 424.500 C 1688.331 426.150, 1686.756 428.850, 1685.970 430.500 C 1685.184 432.150, 1683.609 434.850, 1682.470 436.500 C 1681.331 438.150, 1679.765 440.850, 1678.991 442.500 C 1678.216 444.150, 1677.114 446.121, 1676.541 446.880 C 1675.468 448.303, 1671.365 455.369, 1666.020 465 C 1664.341 468.025, 1661.416 473.200, 1659.519 476.500 C 1655.357 483.742, 1649.598 494.089, 1645.431 501.811 C 1643.743 504.940, 1641.718 507.613, 1640.931 507.751 C 1639.641 507.979, 1632 496.664, 1632 494.526 C 1632 494.066, 1630.918 492.270, 1629.595 490.536 C 1628.272 488.802, 1626.162 485.159, 1624.906 482.441 C 1623.649 479.724, 1621.671 476.150, 1620.510 474.500 C 1619.349 472.850, 1617.756 470.150, 1616.970 468.500 C 1616.184 466.850, 1614.609 464.150, 1613.470 462.500 C 1612.331 460.850, 1610.765 458.150, 1609.991 456.500 C 1609.216 454.850, 1608.114 452.879, 1607.541 452.120 C 1606.413 450.625, 1603.577 445.684, 1593.811 428.205 C 1590.340 421.993, 1585.606 413.668, 1583.291 409.705 C 1580.976 405.742, 1577.464 399.238, 1575.487 395.250 C 1573.510 391.262, 1571.546 388, 1571.124 388 C 1570.702 388, 1569.299 385.637, 1568.007 382.750 C 1566.715 379.863, 1564.700 376.150, 1563.528 374.500 C 1562.357 372.850, 1560.766 370.150, 1559.992 368.500 C 1559.219 366.850, 1558.059 364.825, 1557.415 364 C 1556.771 363.175, 1555.166 360.475, 1553.848 358 C 1552.531 355.525, 1550.726 352.375, 1549.838 351 C 1547.639 347.598, 1543.629 340.535, 1540.469 334.500 C 1539.029 331.750, 1536.906 328.488, 1535.751 327.250 L 1533.651 325 1488.794 325 C 1453.829 325, 1443.832 325.276, 1443.462 326.250 M 1934 325.994 C 1933.175 326.530, 1931.289 326.976, 1929.809 326.985 C 1928.329 326.993, 1926.821 327.481, 1926.458 328.068 C 1926.095 328.656, 1925.183 328.900, 1924.431 328.612 C 1923.679 328.323, 1922.798 328.518, 1922.473 329.044 C 1922.148 329.570, 1920.938 330, 1919.785 330 C 1918.632 330, 1916.296 331.022, 1914.594 332.270 C 1912.892 333.519, 1910.150 335.193, 1908.500 335.991 C 1900.090 340.058, 1887.115 353.649, 1883.647 362.025 C 1882.628 364.486, 1881.391 367.281, 1880.897 368.236 C 1880.383 369.232, 1880.006 417.881, 1880.015 482.236 C 1880.031 606.914, 1879.566 598.280, 1886.826 608.850 C 1888.847 611.792, 1891.085 615.276, 1891.800 616.591 C 1892.516 617.906, 1894.248 619.774, 1895.649 620.741 C 1897.051 621.709, 1899.895 623.962, 1901.970 625.750 C 1904.045 627.538, 1906.095 629, 1906.527 629 C 1906.958 629, 1908.786 630.125, 1910.589 631.500 C 1912.392 632.875, 1914.558 634, 1915.403 634 C 1916.248 634, 1918.494 634.874, 1920.395 635.941 C 1928.215 640.333, 1929.956 640.408, 2024 640.396 C 2090.404 640.387, 2115.002 640.070, 2119.319 639.167 C 2122.520 638.498, 2129.209 635.906, 2134.184 633.408 C 2148.937 625.998, 2167 606.899, 2167 598.709 C 2167 597.834, 2167.450 596.840, 2168 596.500 C 2168.657 596.094, 2168.995 557.589, 2168.985 484.191 C 2168.970 363.085, 2169.285 370.380, 2163.576 359.176 C 2161.622 355.342, 2148.943 342.031, 2142.885 337.453 C 2140.020 335.289, 2125.149 328.184, 2124.610 328.723 C 2124.301 329.032, 2123.475 328.824, 2122.774 328.261 C 2122.073 327.698, 2119.700 326.889, 2117.500 326.463 C 2111.381 325.279, 1935.790 324.830, 1934 325.994 M 1968.500 385.671 C 1964 387.289, 1959.756 390.974, 1957.212 395.474 C 1955.641 398.251, 1955.478 405.276, 1955.227 480.809 C 1955.042 536.939, 1955.295 564.382, 1956.024 567.091 C 1957.495 572.553, 1964.348 579.497, 1969.673 580.920 C 1972.581 581.697, 1989.700 581.920, 2026.173 581.654 C 2054.953 581.443, 2079.246 581.179, 2080.158 581.067 C 2081.069 580.954, 2082.601 579.993, 2083.563 578.931 C 2084.524 577.869, 2085.882 577, 2086.581 577 C 2087.911 577, 2092.247 568.666, 2093.606 563.500 C 2094.831 558.842, 2095.222 405.822, 2094.012 404.612 C 2093.456 404.056, 2093 402.802, 2093 401.827 C 2093 399.136, 2087.929 389, 2086.583 389 C 2085.932 389, 2084.874 388.474, 2084.232 387.832 C 2080.690 384.290, 2076.423 384.028, 2024 384.132 C 1981.920 384.215, 1971.768 384.496, 1968.500 385.671" stroke="none" fill="#222222" fill-rule="evenodd"/>
</svg>